<?xml version="1.0" encoding="UTF-8"?>
<svg id="Layer_1" data-name="Layer 1" xmlns="http://www.w3.org/2000/svg" version="1.1" viewBox="0 0 432.56 94.58">
  <defs>
    <style>
      .cls-1 {
        fill: #bcbec0;
      }

      .cls-1, .cls-2 {
        stroke-width: 0px;
      }

      .cls-2 {
        fill: #000;
      }
    </style>
  </defs>
  <path class="cls-1" d="M20.77,40.33v8.5l-11.73,6.44,11.73,6.44v8.45L0,58.8v-7.14l20.77-11.33Z"/>
  <g>
    <path class="cls-2" d="M62.59,56.31l15.7-.59c-.45,6.09-2.72,11.1-6.81,15.02-4.09,3.92-9.07,5.88-14.94,5.88-6.21,0-11.45-2.16-15.72-6.48-4.27-4.32-6.41-9.61-6.41-15.87s2.16-11.05,6.47-15.28c4.32-4.23,9.49-6.35,15.53-6.35,5.28,0,9.93,1.67,13.97,4.99,4.03,3.33,6.55,7.58,7.53,12.74l-16.04.59c-1.38-1.81-3.13-2.71-5.25-2.71-1.81,0-3.29.59-4.44,1.78-1.16,1.19-1.74,2.68-1.74,4.49s.61,3.37,1.84,4.61,2.76,1.86,4.59,1.86c2.68,0,4.58-1.57,5.71-4.7Z"/>
    <path class="cls-2" d="M105.21,32.65c5.98,0,11.11,2.15,15.38,6.45,4.27,4.3,6.41,9.46,6.41,15.47s-2.17,11.29-6.5,15.57c-4.33,4.29-9.56,6.43-15.68,6.43s-11.36-2.15-15.7-6.45c-4.35-4.3-6.52-9.49-6.52-15.55s2.17-11.38,6.52-15.6c4.34-4.22,9.71-6.33,16.08-6.33ZM104.79,48.26c-1.69,0-3.13.61-4.32,1.84-1.19,1.23-1.78,2.73-1.78,4.51s.6,3.25,1.8,4.49c1.2,1.24,2.63,1.86,4.3,1.86s3.14-.62,4.34-1.86c1.2-1.24,1.8-2.74,1.8-4.49s-.59-3.28-1.78-4.51c-1.19-1.23-2.64-1.84-4.36-1.84Z"/>
    <path class="cls-2" d="M159.59,17.96h15.83v35.17c0,6.46-1.69,11.72-5.08,15.79-1.95,2.34-4.42,4.21-7.43,5.59-3,1.38-6.09,2.07-9.25,2.07-6.29,0-11.6-2.12-15.91-6.35-4.32-4.23-6.48-9.42-6.48-15.57s2.14-11.1,6.43-15.45c4.29-4.34,9.37-6.52,15.24-6.52.93,0,2.34.08,4.23.25v17.44c-1.3-1.02-2.6-1.52-3.89-1.52-1.64,0-3.04.6-4.21,1.8-1.17,1.2-1.76,2.65-1.76,4.34s.61,3.04,1.82,4.21,2.67,1.76,4.36,1.76c4.06,0,6.09-2.81,6.09-8.42V17.96Z"/>
    <path class="cls-2" d="M225.23,57.19h-24c-.37-1.21-.55-2.33-.55-3.34,0-1.41.25-2.79.76-4.15h8.04c-.56-3.13-2.33-4.7-5.29-4.7-1.97,0-3.58.84-4.82,2.52-1.24,1.68-1.86,3.83-1.86,6.45s.6,4.95,1.8,6.64c1.2,1.69,2.77,2.54,4.72,2.54,1.58,0,3.1-.79,4.57-2.37l9.01,10.83c-4.2,3.3-8.87,4.95-14.01,4.95-6.26,0-11.53-2.1-15.79-6.31-4.26-4.2-6.39-9.41-6.39-15.62s2.15-11.4,6.45-15.66c4.3-4.26,9.59-6.39,15.85-6.39s11.26,2.08,15.43,6.24c4.16,4.16,6.24,9.29,6.24,15.38,0,.62-.06,1.61-.17,2.96Z"/>
  </g>
  <path class="cls-1" d="M263,0l-21.72,94.58h-10.6L252.34,0h10.66Z"/>
  <g>
    <path class="cls-2" d="M288.97,35.61v42.2h-15.83v-42.2h15.83ZM281.1,16.78c2.14,0,4,.76,5.57,2.26,1.57,1.51,2.35,3.29,2.35,5.35,0,2.2-.74,4.01-2.22,5.42-1.48,1.41-3.38,2.12-5.69,2.12s-4.21-.7-5.69-2.12c-1.48-1.41-2.22-3.22-2.22-5.42,0-2.06.78-3.84,2.35-5.35,1.57-1.51,3.42-2.26,5.56-2.26Z"/>
    <path class="cls-2" d="M335.91,77.81h-15.83v-23.83c0-2.43-1-3.64-3.01-3.64s-2.96,1.21-2.96,3.64v23.83h-15.83v-23.53c0-5.5,1.82-10.14,5.46-13.9,3.64-3.77,8.1-5.65,13.37-5.65,6.04,0,10.88,2.19,14.52,6.56,2.85,3.41,4.28,8.17,4.28,14.26v22.26Z"/>
    <path class="cls-2" d="M360.96,20.04v57.77h-15.83V20.04h15.83ZM385.21,35.61l-7.75,15.36,11.51,26.83h-17.52l-9.9-27.55,7.2-14.64h16.46Z"/>
  </g>
  <path class="cls-1" d="M411.79,70.16v-8.5l11.73-6.44-11.71-6.44v-8.45l20.75,11.36v7.14l-20.77,11.33Z"/>
</svg>