<?xml version="1.0" encoding="UTF-8"?>
<svg id="Layer_1" data-name="Layer 1" xmlns="http://www.w3.org/2000/svg" version="1.1" viewBox="0 0 170.1 71.1">
  <defs>
    <style>
      .cls-1 {
        fill: #d9dcd6;
        stroke-width: 0px;
      }
    </style>
  </defs>
  <path class="cls-1" d="M16.7,33.3v19.2L0,42.8l16.7-9.6ZM26.3,47.9l-8,4.6v-19.2l8,4.5v10.1ZM35.8,31.4l-8.8,5-8-4.5,16.8-9.8v9.3ZM35.8,54.4v9.1l-16.8-9.6,7.9-4.5,8.9,5Z"/>
  <path class="cls-1" d="M59.4,20.6l-16.9,9.8V11l16.9,9.7ZM43.2,9.7L60.1,0v19.4l-16.9-9.8Z"/>
  <path class="cls-1" d="M64.4,52.6l9.8-16.9,9.8,17h-19.6ZM83.9,54l-9.8,16.9-9.7-17h19.6ZM94.9,35.1l-9.8,16.9-9.7-16.9h19.5ZM86.4,52.7l9.8-16.9,9.7,16.9h-19.5ZM96,71.1l-9.7-16.9h19.5c0,0-9.8,16.9-9.8,16.9Z"/>
  <path class="cls-1" d="M127.7,11v19.4s-16.9-9.8-16.9-9.8l16.9-9.7ZM110.1,19.4V0s16.9,9.7,16.9,9.7l-16.9,9.8Z"/>
  <path class="cls-1" d="M134.4,22.6l16.7,9.7-8,4.5-8.7-5v-9.2ZM143.2,49.6l7.9,4.5-16.7,9.6v-9l8.8-5.1ZM143.9,38.2l8-4.5v19.1l-8-4.6v-10ZM170.1,43.2l-16.7,9.6v-19.1l16.7,9.6Z"/>
</svg>