<?xml version="1.0" encoding="UTF-8"?>
<svg id="Layer_1" data-name="Layer 1" xmlns="http://www.w3.org/2000/svg" version="1.1" viewBox="0 0 10 10">
  <defs>
    <style>
      .cls-1 {
        fill: #67e8f9;
        stroke-width: 0px;
      }
    </style>
  </defs>
  <path class="cls-1" d="M5.75,9.27c-.21-1.38-.41-2.75-.62-4.14,1.38.21,2.76.42,4.15.63-.01.01-.02.02-.03.02-.5.26-1.01.53-1.51.79-.1.05-.11.13-.03.21.61.61,1.23,1.23,1.84,1.84.01.01.04.02.05.03-.32.32-.63.63-.94.94,0,0-.02-.02-.03-.03-.62-.62-1.24-1.24-1.86-1.86-.08-.08-.15-.06-.2.03-.26.5-.52,1-.78,1.5,0,.01-.01.02-.02.03,0,0,0,0-.01,0Z"/>
  <path class="cls-1" d="M1.08,8.11C.4,7.23.04,6.23,0,5.11h.06c.71,0,1.43,0,2.14,0,.05,0,.06.01.06.06.01.77.11,1.52.31,2.26,0,.01,0,.03.01.05-.52.15-1.02.35-1.49.64Z"/>
  <path class="cls-1" d="M10,4.89h-2.24c-.03-.36-.05-.72-.09-1.07-.04-.36-.11-.71-.19-1.06.55-.17,1.08-.38,1.56-.7.27.37.48.76.64,1.18.2.53.3,1.08.32,1.65Z"/>
  <path class="cls-1" d="M.96,2.05c.48.32,1.01.54,1.56.7-.17.7-.26,1.41-.26,2.13H0c.03-1.04.35-1.98.96-2.83Z"/>
  <path class="cls-1" d="M2.47,5.11s.04,0,.05,0c.77,0,1.54,0,2.31,0,.04,0,.05.01.05.06,0,.65,0,1.29,0,1.94v.05c-.71.01-1.41.09-2.1.27-.21-.75-.31-1.52-.32-2.31Z"/>
  <path class="cls-1" d="M4.89,4.89h-2.41c0-.7.09-1.39.25-2.07.07.02.13.03.19.05.52.12,1.04.19,1.58.22.12,0,.23,0,.35.01.03,0,.05.01.05.05,0,.57,0,1.14,0,1.71,0,.01,0,.03,0,.04Z"/>
  <path class="cls-1" d="M7.27,2.81c.17.68.25,1.37.26,2.07h-2.41v-1.79c.73-.01,1.45-.1,2.16-.28Z"/>
  <path class="cls-1" d="M4.89,0v2.87c-.71,0-1.41-.09-2.11-.27.03-.09.05-.18.08-.26.15-.46.34-.91.61-1.31.21-.31.45-.59.77-.8.18-.11.37-.19.58-.22.01,0,.03,0,.05,0,0,0,.01,0,.02,0Z"/>
  <path class="cls-1" d="M5.11,2.87V0c.07.01.14.02.21.04.28.07.51.22.72.41.32.29.56.65.75,1.04.17.34.3.7.41,1.07,0,.03,0,.04-.03.05-.36.09-.72.16-1.09.2-.31.03-.63.04-.94.06-.01,0-.02,0-.04,0Z"/>
  <path class="cls-1" d="M2.85,7.62c.13-.03.25-.06.38-.08.53-.11,1.06-.16,1.6-.17.06,0,.06,0,.06.06,0,.83,0,1.67,0,2.5v.06s-.09-.01-.14-.02c-.29-.06-.54-.2-.76-.4-.3-.26-.52-.58-.71-.93-.17-.32-.31-.65-.42-.99,0,0,0-.02,0-.03Z"/>
  <path class="cls-1" d="M10,5.11c-.03,1.01-.32,1.92-.89,2.74-.39-.39-.77-.77-1.15-1.16.06-.03.12-.07.19-.1.5-.26,1.01-.53,1.51-.79.03-.02.07-.05.08-.08.03-.06-.02-.13-.09-.14-.2-.03-.4-.06-.6-.09-.42-.06-.84-.13-1.26-.19-.03,0-.04-.02-.04-.05,0-.05,0-.1,0-.15h2.26Z"/>
  <path class="cls-1" d="M4.05.1c-.07.06-.15.12-.22.18-.31.28-.54.61-.74.97-.22.4-.37.82-.5,1.25,0,.01,0,.03-.02.05-.52-.15-1.02-.36-1.48-.66C1.86.93,2.84.33,4.05.1Z"/>
  <path class="cls-1" d="M5.96.09c1.2.24,2.18.84,2.96,1.79-.46.3-.96.51-1.48.66-.03-.11-.07-.22-.1-.32-.17-.52-.39-1.01-.71-1.45-.18-.24-.38-.46-.62-.64-.01,0-.02-.02-.03-.03,0,0,0,0,0-.02Z"/>
  <path class="cls-1" d="M4.04,9.91c-1.12-.23-2.05-.77-2.81-1.63.45-.27.92-.45,1.42-.6.01.04.03.08.04.12.16.48.36.94.65,1.35.19.27.41.52.68.72,0,0,.02.02.03.02,0,0,0,0,0,.01Z"/>
  <path class="cls-1" d="M5.11,10s0-.04,0-.06c0-.84,0-1.67,0-2.51q0-.06.06-.06c.08,0,.08,0,.09.08.1.66.2,1.32.3,1.98,0,.06.02.12.03.18.01.07.04.11.1.12.05,0,.09-.02.13-.08.24-.47.49-.93.73-1.4.05-.1.11-.21.16-.31,0,0,.02,0,.02.02.07.07.13.13.2.2,0,0,.02.03.01.05-.21.48-.46.94-.85,1.3-.24.23-.5.39-.83.46-.05,0-.09.02-.15.02Z"/>
  <path class="cls-1" d="M7.11,8.36c.25.25.5.5.75.75-.57.4-1.2.67-1.9.8.54-.4.88-.95,1.15-1.54Z"/>
  <path class="cls-1" d="M6.52,5.11h1.01v.16c-.34-.05-.67-.1-1.01-.15,0,0,0,0,0,0Z"/>
  <path class="cls-1" d="M5.21,7.15h-.1v-.64s0,0,0,0c.03.21.06.43.1.64Z"/>
</svg>