<?xml version="1.0" encoding="UTF-8"?>
<svg id="Layer_1" data-name="Layer 1" xmlns="http://www.w3.org/2000/svg" version="1.1" viewBox="0 0 10 9.71">
  <defs>
    <style>
      .cls-1 {
        fill: #67e8f9;
        stroke-width: 0px;
      }
    </style>
  </defs>
  <path class="cls-1" d="M3.75,8.54s0,.02,0,.03c0,.3,0,.6,0,.89,0,.15-.12.26-.27.24-.08-.01-.16-.04-.23-.06-.72-.27-1.35-.68-1.89-1.24-.58-.61-.98-1.33-1.2-2.14C.02,5.68-.03,5.1.02,4.51c.12-1.21.62-2.24,1.49-3.09C2.21.74,3.03.3,3.99.11c1.24-.25,2.41-.07,3.51.56,1.06.61,1.8,1.5,2.22,2.66.24.68.33,1.38.26,2.1-.1,1.07-.5,2.01-1.2,2.81-.56.64-1.24,1.11-2.03,1.41-.06.02-.13.05-.19.06-.19.03-.31-.07-.31-.27,0-.41,0-.81,0-1.22,0-.18,0-.37-.05-.55-.05-.18-.13-.35-.27-.48,0,0,0,0-.01-.02.06,0,.12-.02.18-.02.34-.05.67-.13.98-.28.52-.26.85-.67,1-1.23.11-.41.15-.83.09-1.25-.05-.37-.21-.7-.46-.98-.02-.03-.03-.05-.02-.08.12-.34.11-.68.02-1.02-.02-.07-.05-.15-.07-.22,0-.03-.02-.05-.06-.04-.1,0-.2,0-.3.02-.26.05-.49.16-.71.29-.1.06-.2.12-.3.18-.02,0-.04.01-.06,0-.45-.12-.9-.17-1.37-.15-.35.01-.7.06-1.04.15-.05.01-.08,0-.12-.02-.22-.15-.46-.28-.7-.37-.15-.06-.3-.11-.47-.11-.18,0-.14-.02-.19.13-.12.36-.15.72-.04,1.09.03.09.01.14-.04.2-.29.35-.43.75-.44,1.2,0,.35.03.7.14,1.05.19.59.57,1,1.14,1.23.3.12.62.18.94.22.01,0,.03,0,.04,0,0,0,0,.01,0,.01-.17.17-.26.37-.29.61,0,.04-.02.05-.05.07-.22.09-.44.13-.68.1-.24-.04-.44-.15-.59-.34-.07-.08-.12-.17-.18-.26-.12-.16-.26-.3-.44-.38-.14-.06-.28-.08-.42-.05-.1.02-.12.08-.05.16.04.05.09.09.14.12.15.08.25.21.35.34.1.14.18.29.24.45.11.28.33.44.61.53.24.07.49.08.74.05.1-.01.21-.03.31-.04Z"/>
</svg>