<?xml version="1.0" encoding="utf-8"?>
<!-- Generator: Adobe Illustrator 27.8.0, SVG Export Plug-In . SVG Version: 6.00 Build 0)  -->
<svg version="1.1" id="Layer_1" xmlns="http://www.w3.org/2000/svg" xmlns:xlink="http://www.w3.org/1999/xlink" x="0px" y="0px"
	 viewBox="0 0 144 52.39" style="enable-background:new 0 0 144 52.39;" xml:space="preserve">
<style type="text/css">
	.st0{fill:#F79020;}
	.st1{fill:#0068A6;}
</style>
<g>
	<g>
		<path class="st0" d="M6.22,29.8H0V5.46h6.93c2.69,0,4.6,0.13,5.71,0.4c1.11,0.27,2.05,0.72,2.8,1.36c0.9,0.73,1.58,1.66,2.05,2.78
			c0.47,1.13,0.71,2.36,0.71,3.72c0,1.44-0.23,2.72-0.7,3.82c-0.47,1.11-1.15,2.02-2.06,2.73c-0.69,0.53-1.5,0.91-2.43,1.15
			c-0.93,0.23-2.42,0.35-4.47,0.35H7.41h-1.2V29.8z M6.22,16.42h1.26c1.6,0,2.71-0.22,3.34-0.65c0.63-0.43,0.95-1.18,0.95-2.24
			c0-1.01-0.31-1.73-0.93-2.17c-0.62-0.44-1.72-0.66-3.29-0.66H6.22V16.42z"/>
		<rect x="21.33" y="4.03" class="st0" width="5.93" height="25.77"/>
		<path class="st0" d="M49.79,13.01V29.8h-5.44v-2.73c-0.76,1.16-1.64,2.01-2.63,2.55c-0.99,0.54-2.12,0.81-3.41,0.81
			c-2.22,0-4-0.82-5.35-2.45c-1.35-1.63-2.03-3.82-2.03-6.56c0-2.71,0.7-4.88,2.1-6.5c1.4-1.62,3.29-2.43,5.68-2.43
			c1.27,0,2.36,0.27,3.27,0.8c0.92,0.53,1.7,1.36,2.36,2.47v-2.76H49.79z M44.59,21.39c0-1.28-0.35-2.31-1.05-3.08
			c-0.7-0.77-1.65-1.16-2.86-1.16c-1.19,0-2.13,0.38-2.83,1.13c-0.7,0.76-1.06,1.79-1.06,3.1c0,1.29,0.35,2.32,1.05,3.07
			c0.7,0.76,1.65,1.13,2.84,1.13c1.2,0,2.15-0.38,2.85-1.13C44.23,23.72,44.59,22.69,44.59,21.39"/>
		<path class="st0" d="M110.17,13.01V29.8h-5.44v-2.73c-0.76,1.16-1.64,2.01-2.63,2.55c-0.99,0.54-2.12,0.81-3.41,0.81
			c-2.22,0-4-0.82-5.35-2.45c-1.35-1.63-2.03-3.82-2.03-6.56c0-2.71,0.7-4.88,2.1-6.5c1.4-1.62,3.29-2.43,5.68-2.43
			c1.27,0,2.36,0.27,3.27,0.8c0.92,0.53,1.7,1.36,2.36,2.47v-2.76H110.17z M104.97,21.39c0-1.28-0.35-2.31-1.05-3.08
			c-0.7-0.77-1.65-1.16-2.86-1.16c-1.19,0-2.13,0.38-2.83,1.13c-0.7,0.76-1.06,1.79-1.06,3.1c0,1.29,0.35,2.32,1.05,3.07
			c0.7,0.76,1.65,1.13,2.84,1.13c1.2,0,2.15-0.38,2.85-1.13C104.61,23.72,104.97,22.69,104.97,21.39"/>
		<path class="st0" d="M115.22,29.8V17.2h-2.53v-4.19h2.53V9.57c0-1.94,0.53-3.41,1.6-4.4c1.07-0.99,2.66-1.49,4.76-1.49
			c0.14,0,0.31,0.01,0.49,0.02c0.18,0.01,0.41,0.04,0.68,0.07c0.27,0.04,0.47,0.07,0.59,0.08c0.12,0.02,0.34,0.06,0.65,0.14v4.52
			c-0.04-0.02-0.17-0.06-0.37-0.12c-0.2-0.06-0.35-0.09-0.45-0.12c-0.1-0.02-0.18-0.04-0.25-0.05c-0.07-0.01-0.17-0.02-0.3-0.02
			c-0.54,0-0.95,0.17-1.21,0.51c-0.26,0.34-0.39,0.87-0.39,1.6v2.68H124v4.19h-2.96v12.6H115.22z"/>
		<path class="st0" d="M144,22.58h-12.77c0,1.28,0.33,2.27,0.99,2.98c0.66,0.71,1.59,1.06,2.78,1.06c0.89,0,1.64-0.16,2.25-0.49
			c0.62-0.33,1.09-0.83,1.42-1.5l4.46,1.79c-0.53,1.27-1.47,2.26-2.83,2.96c-1.35,0.7-3.01,1.05-4.97,1.05
			c-2.94,0-5.29-0.81-7.05-2.43c-1.76-1.62-2.64-3.76-2.64-6.41c0-2.59,0.88-4.75,2.64-6.49c1.76-1.74,4-2.61,6.72-2.61
			c2.78,0,4.98,0.88,6.58,2.63c1.61,1.75,2.41,4.15,2.41,7.18V22.58z M138.16,19.24c-0.1-0.95-0.46-1.71-1.08-2.28
			c-0.62-0.57-1.38-0.86-2.28-0.86c-0.95,0-1.72,0.26-2.29,0.78c-0.57,0.52-0.96,1.31-1.16,2.36H138.16z"/>
		<path class="st0" d="M59.82,21.11c0.1-0.24,0.31-0.74,0.63-1.43c-0.07-0.2-0.15-0.39-0.23-0.6l-2.34-6.07H51.3l5.91,12.43
			C58.11,24.27,58.99,22.85,59.82,21.11"/>
		<path class="st1" d="M76.14,3.86c0.41-1.82,1.55-3.16,2.91-3.24c-0.85,0.63-1.51,1.69-1.83,2.98c0.21-0.04,0.43-0.08,0.66-0.11
			c0.39-1.32,1.17-2.34,2.13-2.71c0.96,0.37,1.74,1.39,2.13,2.71c0.22,0.03,0.44,0.07,0.66,0.11c-0.32-1.29-0.98-2.35-1.83-2.98
			c1.36,0.08,2.5,1.42,2.91,3.24C84.1,3.93,84.32,4,84.53,4.08C84.13,1.74,82.62,0,80.82,0C80.54,0,80.27,0.04,80,0.13
			C79.74,0.04,79.46,0,79.18,0c-1.8,0-3.31,1.74-3.71,4.08C75.68,4,75.91,3.93,76.14,3.86"/>
		<path class="st1" d="M48.58,37.34c-0.19,0-4.52-0.01-4.56-0.01l4.6-5.83c0,0-0.01,0-0.04,0c0.29,0.01,7.16,0.14,12-10.06
			C61.1,20.1,66.19,8.02,75.5,4.85c4.3-1.47,8.84-0.78,12.51,1.81l-2.35,5c-2.93-1.76-5.64-2.19-8.27-1.29
			c-5.87,1.99-10.25,10.27-11.44,13.3l-0.03,0.09l-0.04,0.09C59.86,36.64,50.55,37.34,48.58,37.34"/>
		<path class="st0" d="M87.09,16.93c-0.85-0.87-2.63-1.68-5.34-2.41l-0.3-0.08c-1.26-0.33-2.11-0.69-2.54-1.06
			c-0.43-0.38-0.65-0.86-0.65-1.45c0-0.39,0.1-0.73,0.31-1.03c-0.31,0.06-0.61,0.15-0.91,0.25c-1.95,0.66-3.74,2.08-5.29,3.76
			c0.24,0.82,0.64,1.51,1.2,2.1c0.99,1.04,2.67,1.88,5.05,2.51c1.75,0.49,2.87,0.95,3.36,1.39c0.49,0.44,0.73,1.05,0.73,1.84
			c0,0.73-0.29,1.33-0.86,1.81c-0.58,0.48-1.3,0.71-2.18,0.71c-0.94,0-1.9-0.28-2.87-0.84c-0.97-0.56-1.94-1.39-2.92-2.49
			l-2.99,4.92c1.29,1.24,2.62,2.15,4.01,2.72c1.39,0.57,2.93,0.86,4.64,0.86c2.83,0,5.09-0.79,6.78-2.36
			c1.7-1.57,2.54-3.64,2.54-6.21c0-1.02-0.16-1.95-0.47-2.79C88.08,18.23,87.65,17.51,87.09,16.93"/>
		<path class="st1" d="M75.85,33.88c-0.25-0.21-0.51-0.37-0.79-0.48c-0.28-0.11-0.57-0.16-0.87-0.16c-0.59,0-1.07,0.19-1.44,0.57
			c-0.37,0.38-0.56,0.87-0.56,1.48c0,0.58,0.18,1.07,0.54,1.45c0.36,0.38,0.82,0.57,1.37,0.57c0.32,0,0.63-0.06,0.92-0.17
			c0.29-0.11,0.57-0.28,0.83-0.51v0.99c-0.24,0.17-0.49,0.3-0.77,0.38c-0.28,0.08-0.58,0.13-0.91,0.13c-0.41,0-0.8-0.07-1.15-0.2
			c-0.35-0.14-0.66-0.34-0.93-0.6c-0.26-0.26-0.47-0.56-0.61-0.92c-0.14-0.35-0.21-0.73-0.21-1.12c0-0.4,0.07-0.77,0.21-1.12
			c0.14-0.35,0.35-0.66,0.62-0.92c0.27-0.27,0.58-0.47,0.92-0.6c0.35-0.14,0.72-0.21,1.13-0.21c0.32,0,0.62,0.05,0.91,0.14
			c0.29,0.09,0.57,0.23,0.84,0.42L75.85,33.88z"/>
		<path class="st1" d="M88.84,37.98l-0.61-1.39h-2.14l-0.63,1.39h-0.92l2.62-5.63l2.62,5.63H88.84z M86.4,35.85h1.51l-0.55-1.24
			c-0.03-0.08-0.07-0.17-0.1-0.27c-0.03-0.1-0.07-0.22-0.1-0.34c-0.03,0.12-0.06,0.23-0.09,0.33c-0.03,0.1-0.07,0.2-0.1,0.28
			L86.4,35.85z"/>
		<path class="st1" d="M98.28,37.98v-5.63l3.44,3.31c0.09,0.09,0.19,0.19,0.28,0.3c0.1,0.11,0.2,0.23,0.3,0.36v-3.75h0.81v5.62
			l-3.51-3.37c-0.09-0.09-0.18-0.19-0.27-0.29c-0.09-0.1-0.17-0.21-0.25-0.32v3.76H98.28z"/>
		<path class="st1" d="M115.95,37.98l-0.61-1.39h-2.14l-0.63,1.39h-0.92l2.62-5.63l2.62,5.63H115.95z M113.52,35.85h1.51l-0.55-1.24
			c-0.03-0.08-0.07-0.17-0.1-0.27c-0.03-0.1-0.07-0.22-0.1-0.34c-0.03,0.12-0.06,0.23-0.09,0.33s-0.07,0.2-0.1,0.28L113.52,35.85z"
			/>
		<path class="st1" d="M125.52,37.98v-5.41h1.19c0.77,0,1.31,0.04,1.63,0.12c0.31,0.08,0.59,0.21,0.83,0.39
			c0.31,0.24,0.55,0.55,0.71,0.92c0.16,0.37,0.24,0.8,0.24,1.28c0,0.48-0.08,0.91-0.24,1.28c-0.16,0.37-0.4,0.68-0.71,0.92
			c-0.24,0.18-0.51,0.31-0.81,0.39c-0.3,0.08-0.77,0.12-1.41,0.12h-0.24H125.52z M126.4,37.18h0.74c0.41,0,0.71-0.03,0.92-0.08
			c0.2-0.05,0.38-0.15,0.53-0.27c0.2-0.18,0.36-0.39,0.46-0.65c0.1-0.26,0.15-0.56,0.15-0.91c0-0.35-0.05-0.65-0.15-0.91
			c-0.1-0.26-0.26-0.48-0.46-0.65c-0.15-0.13-0.34-0.22-0.55-0.27c-0.21-0.05-0.55-0.08-1-0.08h-0.32h-0.32V37.18z"/>
		<path class="st1" d="M143.07,37.98l-0.61-1.39h-2.14l-0.63,1.39h-0.92l2.62-5.63l2.62,5.63H143.07z M140.64,35.85h1.51l-0.55-1.24
			c-0.03-0.08-0.07-0.17-0.1-0.27c-0.03-0.1-0.07-0.22-0.1-0.34c-0.03,0.12-0.06,0.23-0.09,0.33c-0.03,0.1-0.07,0.2-0.1,0.28
			L140.64,35.85z"/>
	</g>
	<g>
		<path class="st1" d="M15.74,45.38h1.32l0.76,3.59l0.78-3.59h1.36l-1.45,4.99h-1.34l-0.78-3.63l-0.79,3.63h-1.35l-1.4-4.99h1.4
			l0.78,3.58L15.74,45.38z"/>
		<path class="st1" d="M23.03,45.38h1.32l0.76,3.59l0.78-3.59h1.36l-1.45,4.99h-1.34l-0.78-3.63l-0.79,3.63h-1.35l-1.4-4.99h1.4
			l0.78,3.58L23.03,45.38z"/>
		<path class="st1" d="M30.33,45.38h1.32l0.76,3.59l0.78-3.59h1.36l-1.45,4.99h-1.34l-0.78-3.63l-0.79,3.63h-1.35l-1.4-4.99h1.4
			l0.78,3.58L30.33,45.38z"/>
		<path class="st1" d="M34.9,49h1.39v1.37H34.9V49z"/>
		<path class="st1" d="M41.72,45.92c0.41,0.43,0.61,1.06,0.61,1.89c0,0.88-0.2,1.55-0.6,2.01c-0.4,0.46-0.91,0.69-1.54,0.69
			c-0.4,0-0.73-0.1-1-0.3c-0.14-0.11-0.29-0.27-0.42-0.48v2.6h-1.29v-6.95h1.25v0.74c0.14-0.22,0.29-0.39,0.45-0.51
			c0.29-0.22,0.64-0.33,1.04-0.33C40.82,45.27,41.31,45.49,41.72,45.92z M40.72,46.86c-0.18-0.3-0.46-0.44-0.86-0.44
			c-0.48,0-0.81,0.22-0.98,0.67c-0.09,0.24-0.14,0.54-0.14,0.91c0,0.58,0.16,0.99,0.47,1.22c0.19,0.14,0.4,0.21,0.66,0.21
			c0.37,0,0.65-0.14,0.84-0.42s0.29-0.65,0.29-1.12C40.98,47.49,40.9,47.15,40.72,46.86z"/>
		<path class="st1" d="M44.58,50.37h-1.3v-6.75h1.3V50.37z"/>
		<path class="st1" d="M47.83,47.34c0.24-0.03,0.42-0.07,0.52-0.11c0.19-0.08,0.28-0.2,0.28-0.37c0-0.2-0.07-0.35-0.22-0.42
			c-0.14-0.08-0.35-0.12-0.63-0.12c-0.31,0-0.53,0.08-0.66,0.23c-0.09,0.11-0.15,0.27-0.19,0.46h-1.26
			c0.03-0.44,0.15-0.79,0.37-1.08c0.35-0.44,0.94-0.66,1.78-0.66c0.55,0,1.04,0.11,1.46,0.32c0.43,0.22,0.64,0.63,0.64,1.23v2.29
			c0,0.16,0,0.35,0.01,0.58c0.01,0.17,0.04,0.29,0.08,0.35c0.04,0.06,0.11,0.11,0.19,0.15v0.19h-1.42c-0.04-0.1-0.07-0.2-0.08-0.28
			c-0.02-0.09-0.03-0.19-0.04-0.3c-0.18,0.2-0.39,0.36-0.63,0.5c-0.28,0.16-0.6,0.24-0.96,0.24c-0.45,0-0.83-0.13-1.13-0.39
			c-0.3-0.26-0.44-0.62-0.44-1.1c0-0.61,0.24-1.06,0.71-1.33c0.26-0.15,0.65-0.26,1.15-0.32L47.83,47.34z M48.63,47.95
			c-0.08,0.05-0.17,0.09-0.25,0.13s-0.2,0.06-0.35,0.09l-0.3,0.06c-0.28,0.05-0.48,0.11-0.6,0.18c-0.21,0.12-0.31,0.3-0.31,0.55
			c0,0.22,0.06,0.38,0.19,0.48c0.13,0.1,0.28,0.15,0.46,0.15c0.29,0,0.55-0.08,0.79-0.25s0.36-0.46,0.37-0.9V47.95z"/>
		<path class="st1" d="M51.26,51.33l0.16,0.01c0.13,0.01,0.25,0,0.37-0.01c0.12-0.02,0.21-0.05,0.29-0.11
			c0.08-0.05,0.15-0.16,0.21-0.33c0.07-0.16,0.09-0.27,0.08-0.3l-1.83-5.21H52l1.09,3.68l1.03-3.68h1.39l-1.71,4.91
			c-0.33,0.95-0.59,1.53-0.78,1.76c-0.19,0.23-0.58,0.34-1.15,0.34c-0.12,0-0.21,0-0.28,0c-0.07,0-0.18-0.01-0.32-0.02V51.33z"/>
		<path class="st1" d="M57.29,48.78c0.03,0.23,0.09,0.4,0.18,0.49c0.16,0.17,0.46,0.26,0.9,0.26c0.26,0,0.46-0.04,0.61-0.11
			s0.23-0.19,0.23-0.34c0-0.15-0.06-0.26-0.18-0.33c-0.12-0.08-0.58-0.21-1.36-0.39c-0.57-0.14-0.97-0.32-1.2-0.53
			c-0.23-0.21-0.35-0.51-0.35-0.9c0-0.46,0.18-0.86,0.54-1.19s0.87-0.5,1.53-0.5c0.62,0,1.13,0.12,1.52,0.37
			c0.39,0.25,0.62,0.68,0.68,1.29h-1.3c-0.02-0.17-0.07-0.3-0.14-0.4c-0.14-0.18-0.39-0.27-0.73-0.27c-0.28,0-0.49,0.04-0.61,0.13
			c-0.12,0.09-0.18,0.19-0.18,0.31c0,0.15,0.06,0.26,0.19,0.33c0.13,0.07,0.58,0.19,1.36,0.36c0.52,0.12,0.91,0.31,1.17,0.55
			c0.26,0.25,0.38,0.56,0.38,0.94c0,0.5-0.18,0.9-0.55,1.21c-0.37,0.31-0.94,0.47-1.71,0.47c-0.79,0-1.37-0.17-1.74-0.5
			s-0.56-0.75-0.56-1.27H57.29z"/>
		<path class="st1" d="M63.47,47.34c0.24-0.03,0.42-0.07,0.52-0.11c0.19-0.08,0.28-0.2,0.28-0.37c0-0.2-0.07-0.35-0.22-0.42
			c-0.14-0.08-0.35-0.12-0.63-0.12c-0.31,0-0.53,0.08-0.66,0.23c-0.09,0.11-0.15,0.27-0.19,0.46h-1.26
			c0.03-0.44,0.15-0.79,0.37-1.08c0.35-0.44,0.94-0.66,1.78-0.66c0.55,0,1.04,0.11,1.46,0.32c0.43,0.22,0.64,0.63,0.64,1.23v2.29
			c0,0.16,0,0.35,0.01,0.58c0.01,0.17,0.04,0.29,0.08,0.35c0.04,0.06,0.11,0.11,0.19,0.15v0.19h-1.42c-0.04-0.1-0.07-0.2-0.08-0.28
			c-0.02-0.09-0.03-0.19-0.04-0.3c-0.18,0.2-0.39,0.36-0.63,0.5c-0.28,0.16-0.6,0.24-0.96,0.24c-0.45,0-0.83-0.13-1.13-0.39
			c-0.3-0.26-0.44-0.62-0.44-1.1c0-0.61,0.24-1.06,0.71-1.33c0.26-0.15,0.65-0.26,1.15-0.32L63.47,47.34z M64.27,47.95
			c-0.08,0.05-0.17,0.09-0.25,0.13c-0.08,0.03-0.2,0.06-0.35,0.09l-0.3,0.06c-0.28,0.05-0.48,0.11-0.6,0.18
			c-0.21,0.12-0.31,0.3-0.31,0.55c0,0.22,0.06,0.38,0.19,0.48c0.13,0.1,0.28,0.15,0.46,0.15c0.29,0,0.55-0.08,0.79-0.25
			c0.24-0.17,0.36-0.46,0.37-0.9V47.95z"/>
		<path class="st1" d="M68.77,43.56c0.07,0,0.16,0.01,0.27,0.02v1.06c-0.07-0.01-0.2-0.02-0.37-0.02c-0.17,0-0.29,0.03-0.36,0.11
			c-0.07,0.08-0.1,0.17-0.1,0.27s0,0.24,0,0.42h0.86v0.92h-0.86v4.02h-1.29v-4.02h-0.73v-0.92h0.71v-0.32c0-0.53,0.09-0.9,0.27-1.1
			c0.19-0.3,0.65-0.45,1.37-0.45C68.63,43.56,68.7,43.56,68.77,43.56z"/>
		<path class="st1" d="M73.08,45.48c0.35,0.16,0.64,0.4,0.86,0.74c0.2,0.3,0.34,0.64,0.4,1.03c0.04,0.23,0.05,0.56,0.04,0.99h-3.63
			c0.02,0.5,0.19,0.85,0.52,1.05c0.2,0.12,0.44,0.19,0.72,0.19c0.3,0,0.54-0.08,0.72-0.23c0.1-0.08,0.19-0.2,0.27-0.34h1.33
			c-0.04,0.3-0.2,0.6-0.48,0.9c-0.45,0.49-1.07,0.73-1.88,0.73c-0.66,0-1.25-0.2-1.76-0.61c-0.51-0.41-0.76-1.08-0.76-2
			c0-0.86,0.23-1.53,0.69-1.99s1.05-0.69,1.78-0.69C72.34,45.25,72.73,45.33,73.08,45.48z M71.13,46.61
			c-0.18,0.19-0.3,0.45-0.35,0.77h2.25c-0.02-0.35-0.14-0.61-0.35-0.79c-0.21-0.18-0.47-0.27-0.77-0.27
			C71.57,46.33,71.31,46.42,71.13,46.61z"/>
		<path class="st1" d="M78.03,47.17c-0.02-0.19-0.09-0.35-0.19-0.5c-0.15-0.2-0.37-0.3-0.68-0.3c-0.44,0-0.74,0.22-0.9,0.65
			c-0.09,0.23-0.13,0.54-0.13,0.92c0,0.37,0.04,0.66,0.13,0.88c0.16,0.42,0.45,0.62,0.88,0.62c0.31,0,0.52-0.08,0.65-0.25
			s0.21-0.38,0.23-0.64h1.33c-0.03,0.4-0.17,0.77-0.43,1.13c-0.41,0.57-1.02,0.86-1.82,0.86s-1.39-0.24-1.77-0.71
			c-0.38-0.48-0.57-1.09-0.57-1.85c0-0.86,0.21-1.52,0.63-2c0.42-0.48,1-0.71,1.73-0.71c0.63,0,1.14,0.14,1.54,0.42
			c0.4,0.28,0.63,0.78,0.71,1.49H78.03z"/>
		<path class="st1" d="M82.23,47.34c0.24-0.03,0.42-0.07,0.52-0.11c0.19-0.08,0.28-0.2,0.28-0.37c0-0.2-0.07-0.35-0.22-0.42
			c-0.14-0.08-0.35-0.12-0.63-0.12c-0.31,0-0.53,0.08-0.66,0.23c-0.09,0.11-0.15,0.27-0.19,0.46h-1.26
			c0.03-0.44,0.15-0.79,0.37-1.08c0.35-0.44,0.94-0.66,1.78-0.66c0.55,0,1.04,0.11,1.46,0.32c0.43,0.22,0.64,0.63,0.64,1.23v2.29
			c0,0.16,0,0.35,0.01,0.58c0.01,0.17,0.04,0.29,0.08,0.35c0.04,0.06,0.11,0.11,0.19,0.15v0.19h-1.42c-0.04-0.1-0.07-0.2-0.08-0.28
			c-0.02-0.09-0.03-0.19-0.04-0.3c-0.18,0.2-0.39,0.36-0.63,0.5c-0.28,0.16-0.6,0.24-0.96,0.24c-0.45,0-0.83-0.13-1.13-0.39
			c-0.3-0.26-0.44-0.62-0.44-1.1c0-0.61,0.24-1.06,0.71-1.33c0.26-0.15,0.65-0.26,1.15-0.32L82.23,47.34z M83.03,47.95
			c-0.08,0.05-0.17,0.09-0.25,0.13s-0.2,0.06-0.35,0.09l-0.3,0.06c-0.28,0.05-0.48,0.11-0.6,0.18c-0.21,0.12-0.31,0.3-0.31,0.55
			c0,0.22,0.06,0.38,0.19,0.48c0.13,0.1,0.28,0.15,0.46,0.15c0.29,0,0.55-0.08,0.79-0.25s0.36-0.46,0.37-0.9V47.95z"/>
		<path class="st1" d="M89.49,45.67c0.33,0.27,0.49,0.72,0.49,1.34v3.36h-1.34v-3.03c0-0.26-0.03-0.46-0.1-0.6
			c-0.13-0.26-0.37-0.38-0.73-0.38c-0.44,0-0.74,0.19-0.9,0.56c-0.08,0.2-0.13,0.45-0.13,0.76v2.7h-1.3v-4.98h1.26v0.73
			c0.17-0.26,0.32-0.44,0.47-0.55c0.27-0.2,0.61-0.3,1.02-0.3C88.74,45.26,89.16,45.4,89.49,45.67z"/>
		<path class="st1" d="M93.17,47.34c0.24-0.03,0.42-0.07,0.52-0.11c0.19-0.08,0.28-0.2,0.28-0.37c0-0.2-0.07-0.35-0.22-0.42
			c-0.14-0.08-0.35-0.12-0.63-0.12c-0.31,0-0.53,0.08-0.66,0.23c-0.09,0.11-0.15,0.27-0.19,0.46h-1.26
			c0.03-0.44,0.15-0.79,0.37-1.08c0.35-0.44,0.94-0.66,1.78-0.66c0.55,0,1.04,0.11,1.46,0.32c0.43,0.22,0.64,0.63,0.64,1.23v2.29
			c0,0.16,0,0.35,0.01,0.58c0.01,0.17,0.04,0.29,0.08,0.35c0.04,0.06,0.11,0.11,0.19,0.15v0.19h-1.42c-0.04-0.1-0.07-0.2-0.08-0.28
			c-0.02-0.09-0.03-0.19-0.04-0.3c-0.18,0.2-0.39,0.36-0.63,0.5c-0.28,0.16-0.6,0.24-0.96,0.24c-0.45,0-0.83-0.13-1.13-0.39
			c-0.3-0.26-0.44-0.62-0.44-1.1c0-0.61,0.24-1.06,0.71-1.33c0.26-0.15,0.65-0.26,1.15-0.32L93.17,47.34z M93.97,47.95
			c-0.08,0.05-0.17,0.09-0.25,0.13s-0.2,0.06-0.35,0.09l-0.3,0.06c-0.28,0.05-0.48,0.11-0.6,0.18c-0.21,0.12-0.31,0.3-0.31,0.55
			c0,0.22,0.06,0.38,0.19,0.48c0.13,0.1,0.28,0.15,0.46,0.15c0.29,0,0.55-0.08,0.79-0.25s0.36-0.46,0.37-0.9V47.95z"/>
		<path class="st1" d="M99.05,45.46c0.23,0.13,0.43,0.32,0.57,0.55v-2.38h1.32v6.74h-1.27v-0.69c-0.19,0.3-0.4,0.51-0.64,0.65
			c-0.24,0.13-0.53,0.2-0.89,0.2c-0.58,0-1.07-0.24-1.47-0.71c-0.4-0.47-0.6-1.08-0.6-1.81c0-0.85,0.2-1.52,0.59-2.01
			c0.39-0.49,0.92-0.73,1.57-0.73C98.55,45.26,98.82,45.33,99.05,45.46z M99.37,49.02c0.19-0.27,0.29-0.63,0.29-1.07
			c0-0.61-0.15-1.05-0.46-1.31c-0.19-0.16-0.41-0.24-0.66-0.24c-0.38,0-0.66,0.14-0.84,0.43c-0.18,0.29-0.27,0.65-0.27,1.07
			c0,0.46,0.09,0.83,0.27,1.1c0.18,0.28,0.46,0.42,0.83,0.42S99.18,49.29,99.37,49.02z"/>
		<path class="st1" d="M104.11,47.34c0.24-0.03,0.42-0.07,0.52-0.11c0.19-0.08,0.28-0.2,0.28-0.37c0-0.2-0.07-0.35-0.22-0.42
			c-0.14-0.08-0.35-0.12-0.63-0.12c-0.31,0-0.53,0.08-0.66,0.23c-0.09,0.11-0.15,0.27-0.19,0.46h-1.26
			c0.03-0.44,0.15-0.79,0.37-1.08c0.35-0.44,0.94-0.66,1.78-0.66c0.55,0,1.04,0.11,1.46,0.32c0.43,0.22,0.64,0.63,0.64,1.23v2.29
			c0,0.16,0,0.35,0.01,0.58c0.01,0.17,0.04,0.29,0.08,0.35c0.04,0.06,0.11,0.11,0.19,0.15v0.19h-1.42c-0.04-0.1-0.07-0.2-0.08-0.28
			c-0.02-0.09-0.03-0.19-0.04-0.3c-0.18,0.2-0.39,0.36-0.63,0.5c-0.28,0.16-0.6,0.24-0.96,0.24c-0.45,0-0.83-0.13-1.13-0.39
			c-0.3-0.26-0.44-0.62-0.44-1.1c0-0.61,0.24-1.06,0.71-1.33c0.26-0.15,0.65-0.26,1.15-0.32L104.11,47.34z M104.91,47.95
			c-0.08,0.05-0.17,0.09-0.25,0.13s-0.2,0.06-0.35,0.09l-0.3,0.06c-0.28,0.05-0.48,0.11-0.6,0.18c-0.21,0.12-0.31,0.3-0.31,0.55
			c0,0.22,0.06,0.38,0.19,0.48c0.13,0.1,0.28,0.15,0.46,0.15c0.29,0,0.55-0.08,0.79-0.25s0.36-0.46,0.37-0.9V47.95z"/>
		<path class="st1" d="M107.32,49h1.39v1.37h-1.39V49z"/>
		<path class="st1" d="M112.93,47.17c-0.02-0.19-0.09-0.35-0.19-0.5c-0.15-0.2-0.37-0.3-0.68-0.3c-0.44,0-0.74,0.22-0.9,0.65
			c-0.09,0.23-0.13,0.54-0.13,0.92c0,0.37,0.04,0.66,0.13,0.88c0.16,0.42,0.45,0.62,0.88,0.62c0.31,0,0.52-0.08,0.65-0.25
			s0.21-0.38,0.23-0.64h1.33c-0.03,0.4-0.17,0.77-0.43,1.13c-0.41,0.57-1.02,0.86-1.82,0.86s-1.39-0.24-1.77-0.71
			c-0.38-0.48-0.57-1.09-0.57-1.85c0-0.86,0.21-1.52,0.63-2c0.42-0.48,1-0.71,1.73-0.71c0.63,0,1.14,0.14,1.54,0.42
			c0.4,0.28,0.63,0.78,0.71,1.49H112.93z"/>
		<path class="st1" d="M119.32,49.76c-0.42,0.52-1.06,0.78-1.92,0.78s-1.5-0.26-1.92-0.78s-0.63-1.15-0.63-1.88
			c0-0.72,0.21-1.34,0.63-1.87c0.42-0.53,1.06-0.79,1.92-0.79s1.5,0.26,1.92,0.79c0.42,0.53,0.63,1.15,0.63,1.87
			C119.95,48.62,119.74,49.24,119.32,49.76z M118.28,49.04c0.2-0.27,0.31-0.66,0.31-1.16c0-0.5-0.1-0.88-0.31-1.15
			s-0.5-0.4-0.88-0.4c-0.38,0-0.67,0.13-0.88,0.4s-0.31,0.65-0.31,1.15c0,0.5,0.1,0.88,0.31,1.16s0.5,0.41,0.88,0.41
			C117.78,49.45,118.08,49.31,118.28,49.04z"/>
		<path class="st1" d="M127.11,45.4c0.21,0.09,0.41,0.24,0.58,0.45c0.14,0.17,0.23,0.39,0.28,0.64c0.03,0.17,0.05,0.41,0.05,0.74
			l-0.01,3.14h-1.34v-3.18c0-0.19-0.03-0.34-0.09-0.47c-0.12-0.23-0.33-0.35-0.64-0.35c-0.36,0-0.61,0.15-0.75,0.45
			c-0.07,0.16-0.11,0.35-0.11,0.57v2.97h-1.31V47.4c0-0.3-0.03-0.51-0.09-0.65c-0.11-0.24-0.33-0.36-0.65-0.36
			c-0.37,0-0.62,0.12-0.75,0.36c-0.07,0.14-0.11,0.34-0.11,0.61v3h-1.32v-4.98h1.27v0.73c0.16-0.26,0.31-0.44,0.46-0.55
			c0.25-0.2,0.58-0.29,0.98-0.29c0.38,0,0.69,0.08,0.92,0.25c0.19,0.16,0.33,0.36,0.43,0.6c0.17-0.29,0.38-0.51,0.64-0.65
			c0.27-0.14,0.57-0.21,0.9-0.21C126.68,45.27,126.9,45.32,127.11,45.4z"/>
	</g>
</g>
</svg>
