<?xml version="1.0" encoding="UTF-8"?>
<svg id="Layer_1" data-name="Layer 1" xmlns="http://www.w3.org/2000/svg" version="1.1" viewBox="0 0 432.6 94.6">
  <defs>
    <style>
      .cls-1 {
        fill: #fff;
        stroke-width: 0px;
      }
    </style>
  </defs>
  <path class="cls-1" d="M20.8,40.3v8.5l-11.7,6.4,11.7,6.4v8.4L0,58.8v-7.1l20.8-11.3Z"/>
  <g>
    <path class="cls-1" d="M62.6,56.3l15.7-.6c-.4,6.1-2.7,11.1-6.8,15-4.1,3.9-9.1,5.9-14.9,5.9s-11.5-2.2-15.7-6.5-6.4-9.6-6.4-15.9,2.2-11,6.5-15.3c4.3-4.2,9.5-6.3,15.5-6.3s9.9,1.7,14,5c4,3.3,6.6,7.6,7.5,12.7l-16,.6c-1.4-1.8-3.1-2.7-5.2-2.7s-3.3.6-4.4,1.8c-1.2,1.2-1.7,2.7-1.7,4.5s.6,3.4,1.8,4.6,2.8,1.9,4.6,1.9c2.7,0,4.6-1.6,5.7-4.7h0Z"/>
    <path class="cls-1" d="M105.2,32.7c6,0,11.1,2.2,15.4,6.5s6.4,9.5,6.4,15.5-2.2,11.3-6.5,15.6c-4.3,4.3-9.6,6.4-15.7,6.4s-11.4-2.2-15.7-6.4c-4.3-4.3-6.5-9.5-6.5-15.5s2.2-11.4,6.5-15.6c4.3-4.2,9.7-6.3,16.1-6.3h0ZM104.8,48.3c-1.7,0-3.1.6-4.3,1.8s-1.8,2.7-1.8,4.5.6,3.2,1.8,4.5c1.2,1.2,2.6,1.9,4.3,1.9s3.1-.6,4.3-1.9,1.8-2.7,1.8-4.5-.6-3.3-1.8-4.5c-1.2-1.2-2.6-1.8-4.4-1.8Z"/>
    <path class="cls-1" d="M159.6,18h15.8v35.2c0,6.5-1.7,11.7-5.1,15.8-1.9,2.3-4.4,4.2-7.4,5.6-3,1.4-6.1,2.1-9.2,2.1-6.3,0-11.6-2.1-15.9-6.3-4.3-4.2-6.5-9.4-6.5-15.6s2.1-11.1,6.4-15.5c4.3-4.3,9.4-6.5,15.2-6.5s2.3,0,4.2.2v17.4c-1.3-1-2.6-1.5-3.9-1.5s-3,.6-4.2,1.8c-1.2,1.2-1.8,2.7-1.8,4.3s.6,3,1.8,4.2,2.7,1.8,4.4,1.8c4.1,0,6.1-2.8,6.1-8.4V18h0Z"/>
    <path class="cls-1" d="M225.2,57.2h-24c-.4-1.2-.6-2.3-.6-3.3s.2-2.8.8-4.2h8c-.6-3.1-2.3-4.7-5.3-4.7s-3.6.8-4.8,2.5-1.9,3.8-1.9,6.5.6,5,1.8,6.6,2.8,2.5,4.7,2.5,3.1-.8,4.6-2.4l9,10.8c-4.2,3.3-8.9,4.9-14,4.9s-11.5-2.1-15.8-6.3c-4.3-4.2-6.4-9.4-6.4-15.6s2.1-11.4,6.4-15.7,9.6-6.4,15.9-6.4,11.3,2.1,15.4,6.2c4.2,4.2,6.2,9.3,6.2,15.4s0,1.6-.2,3h0Z"/>
  </g>
  <path class="cls-1" d="M263,0l-21.7,94.6h-10.6L252.3,0h10.7Z"/>
  <g>
    <path class="cls-1" d="M289,35.6v42.2h-15.8v-42.2s15.8,0,15.8,0ZM281.1,16.8c2.1,0,4,.8,5.6,2.3,1.6,1.5,2.4,3.3,2.4,5.4s-.7,4-2.2,5.4-3.4,2.1-5.7,2.1-4.2-.7-5.7-2.1c-1.5-1.4-2.2-3.2-2.2-5.4s.8-3.8,2.4-5.4,3.4-2.3,5.6-2.3h0Z"/>
    <path class="cls-1" d="M335.9,77.8h-15.8v-23.8c0-2.4-1-3.6-3-3.6s-3,1.2-3,3.6v23.8h-15.8v-23.5c0-5.5,1.8-10.1,5.5-13.9,3.6-3.8,8.1-5.7,13.4-5.7s10.9,2.2,14.5,6.6c2.9,3.4,4.3,8.2,4.3,14.3v22.3Z"/>
    <path class="cls-1" d="M361,20v57.8h-15.8V20h15.8ZM385.2,35.6l-7.8,15.4,11.5,26.8h-17.5l-9.9-27.5,7.2-14.6h16.5,0Z"/>
  </g>
  <path class="cls-1" d="M411.8,70.2v-8.5l11.7-6.4-11.7-6.4v-8.5l20.8,11.4v7.1l-20.8,11.3h0Z"/>
</svg>