<?xml version="1.0" encoding="utf-8"?>
<!-- Generator: Adobe Illustrator 27.8.0, SVG Export Plug-In . SVG Version: 6.00 Build 0)  -->
<svg version="1.1" id="Layer_1" xmlns="http://www.w3.org/2000/svg" xmlns:xlink="http://www.w3.org/1999/xlink" x="0px" y="0px"
	 viewBox="0 0 144 49.29" style="enable-background:new 0 0 144 49.29;" xml:space="preserve">
<style type="text/css">
	.st0{fill:#636464;}
	.st1{fill:#787878;}
	.st2{fill:#333333;}
	.st3{fill:#0079B3;}
</style>
<g>
	<g>
		<path class="st0" d="M39.54,16.98c4.75-3.21,8.66-5.54,11.83-7.3C50.24,8.82,49.1,8,47.96,7.22c-3.46,1.57-7.68,3.7-12.7,6.74
			C36.67,14.9,38.1,15.9,39.54,16.98z"/>
		<path class="st1" d="M43.88,4.63C40.12,6.05,35.6,8,30.4,10.93c1.31,0.76,2.64,1.58,4,2.46c5.05-3.02,9.33-5.11,12.85-6.65
			C46.13,6,45,5.29,43.88,4.63z"/>
		<path class="st1" d="M24.85,11.07c-1.17-0.67-2.32-1.27-3.42-1.84c-6.37,3.74-12.95,8.71-18.91,14.89
			c0.79,0.83,1.61,1.71,2.48,2.63C11.33,20.17,18.28,14.97,24.85,11.07z"/>
		<path class="st0" d="M0,21.44c0.65,0.69,1.33,1.42,2.05,2.19c5.88-6.1,12.39-11.03,18.71-14.73c-1.04-0.52-2.03-1-3-1.45
			C11.68,11.01,5.53,15.7,0,21.44z"/>
		<path class="st1" d="M27.7,9.39c1.2-0.65,2.37-1.26,3.51-1.82C26,4.81,21.33,3.02,17.35,1.71c-1.06,0.53-2.13,1.08-3.2,1.68
			C17.97,4.74,22.52,6.58,27.7,9.39z"/>
		<path class="st0" d="M21.02,0c-1,0.43-2.01,0.9-3.03,1.4c4.01,1.3,8.7,3.09,13.9,5.84c1.07-0.52,2.11-1,3.12-1.44
			C29.86,3.09,25.14,1.3,21.02,0z"/>
		<g>
			<path class="st1" d="M27.53,12.7c-1.33,0.81-2.7,1.67-4.09,2.61c6.59,4.18,14.14,9.66,21.31,16.97c1.18-1.21,2.3-2.36,3.37-3.46
				C41.37,21.95,34.12,16.65,27.53,12.7z"/>
		</g>
		<path class="st0" d="M39.96,37.17c1.41-1.44,2.74-2.81,4.02-4.12c-7.26-7.4-14.86-12.92-21.43-17.15c-1.45,1-2.93,2.06-4.41,3.19
			C24.52,23.61,32.27,29.33,39.96,37.17z"/>
		<g>
			<path class="st2" d="M52.73,9.97h3.53c1.91,0,3.29,0.18,4.13,0.53c0.84,0.35,1.51,0.92,2,1.71c0.49,0.79,0.73,1.74,0.73,2.84
				c0,1.22-0.32,2.24-0.96,3.05c-0.64,0.81-1.51,1.37-2.6,1.69c-0.64,0.18-1.81,0.27-3.51,0.27v7.41h-3.33V9.97z M56.06,16.81h1.06
				c0.83,0,1.41-0.06,1.74-0.18c0.33-0.12,0.58-0.32,0.77-0.59c0.19-0.27,0.28-0.61,0.28-1c0-0.68-0.26-1.17-0.79-1.48
				c-0.38-0.23-1.09-0.35-2.12-0.35h-0.94V16.81z"/>
		</g>
		<g>
			<path class="st2" d="M66.27,9.97h3.53c1.93,0,3.31,0.17,4.13,0.52c0.82,0.34,1.48,0.92,1.98,1.72c0.5,0.8,0.75,1.75,0.75,2.84
				c0,1.15-0.28,2.11-0.83,2.89c-0.55,0.77-1.38,1.36-2.49,1.76l4.15,7.78h-3.64l-3.94-7.41H69.6v7.41h-3.33V9.97z M69.6,16.81h1.04
				c1.06,0,1.79-0.14,2.19-0.42c0.4-0.28,0.6-0.74,0.6-1.38c0-0.38-0.1-0.71-0.3-1c-0.2-0.28-0.46-0.49-0.79-0.61
				c-0.33-0.12-0.94-0.19-1.83-0.19H69.6V16.81z"/>
		</g>
		<g>
			<path class="st2" d="M79.85,9.97h9.55v3.26h-6.25v3.16h6.25v3.2h-6.25v4.6h6.25v3.27h-9.55V9.97z"/>
		</g>
		<g>
			<path class="st2" d="M93.86,9.97h3.25l4.06,12.21l4.09-12.21h3.24l2.94,17.5h-3.22l-1.88-11.05l-3.72,11.05h-2.94L96,16.42
				l-1.92,11.05h-3.25L93.86,9.97z"/>
		</g>
		<g>
			<path class="st2" d="M113.52,9.97h3.31v17.5h-3.31V9.97z"/>
		</g>
		<g>
			<path class="st2" d="M120.24,9.97h9.55v3.26h-6.25v3.16h6.25v3.2h-6.25v4.6h6.25v3.27h-9.55V9.97z"/>
		</g>
		<g>
			<path class="st2" d="M132.79,9.97h3.53c1.93,0,3.31,0.17,4.13,0.52c0.82,0.34,1.48,0.92,1.98,1.72c0.5,0.8,0.75,1.75,0.75,2.84
				c0,1.15-0.28,2.11-0.83,2.89c-0.55,0.77-1.38,1.36-2.49,1.76l4.15,7.78h-3.64l-3.94-7.41h-0.31v7.41h-3.33V9.97z M136.12,16.81
				h1.04c1.06,0,1.79-0.14,2.19-0.42c0.4-0.28,0.6-0.74,0.6-1.38c0-0.38-0.1-0.71-0.3-1c-0.2-0.28-0.46-0.49-0.79-0.61
				c-0.33-0.12-0.94-0.19-1.83-0.19h-0.91V16.81z"/>
		</g>
		<g>
			<path class="st2" d="M57.52,36.31l-2.57-3.49h-0.4v3.49h-0.66V29h1.34c1.58,0,2.37,0.65,2.37,1.99c0,1.15-0.73,1.83-1.9,1.83
				l2.63,3.49H57.52z M54.56,32.28h0.66c1.13,0,1.67-0.27,1.67-1.31c0-1.05-0.5-1.39-1.67-1.39h-0.66V32.28z"/>
			<path class="st2" d="M59.92,29v4.77c0,1.43,0.64,2.14,2,2.14c1.35,0,1.99-0.71,1.99-2.14V29h0.66v4.56
				c0,1.97-0.87,2.94-2.66,2.94s-2.66-0.97-2.66-2.94V29H59.92z"/>
			<path class="st2" d="M66.37,29h1.27c0.8,0,1.37,0.02,1.83,0.36c0.48,0.36,0.75,0.9,0.75,1.54c0,0.78-0.44,1.36-1.15,1.53
				c0.93,0.13,1.5,0.79,1.5,1.73c0,0.76-0.26,1.32-0.76,1.71c-0.55,0.43-1.24,0.44-2.17,0.44h-1.28V29z M67.86,32.25
				c1.09,0,1.67-0.27,1.67-1.3c0-1.09-0.51-1.37-1.67-1.37h-0.83v2.67H67.86z M67.88,35.74c0.04,0,0.08,0,0.13,0
				c0.56,0,0.99-0.01,1.33-0.27c0.31-0.24,0.51-0.7,0.51-1.18c0-0.6-0.23-1.05-0.58-1.27c-0.32-0.19-0.7-0.21-1.13-0.21
				c-0.08,0-0.17,0-0.26,0h-0.85v2.91H67.88z"/>
			<path class="st2" d="M72.02,29h1.27c0.8,0,1.37,0.02,1.83,0.36c0.48,0.36,0.75,0.9,0.75,1.54c0,0.78-0.44,1.36-1.15,1.53
				c0.93,0.13,1.5,0.79,1.5,1.73c0,0.76-0.26,1.32-0.76,1.71c-0.55,0.43-1.24,0.44-2.17,0.44h-1.28V29z M73.52,32.25
				c1.09,0,1.67-0.27,1.67-1.3c0-1.09-0.51-1.37-1.67-1.37h-0.83v2.67H73.52z M73.54,35.74c0.04,0,0.08,0,0.13,0
				c0.56,0,0.99-0.01,1.33-0.27c0.31-0.24,0.51-0.7,0.51-1.18c0-0.6-0.23-1.05-0.58-1.27c-0.32-0.19-0.7-0.21-1.13-0.21
				c-0.08,0-0.17,0-0.26,0h-0.85v2.91H73.54z"/>
			<path class="st2" d="M77.68,29h3.62v0.62h-2.95v2.29h2.95v0.62h-2.95v3.15h2.95v0.62h-3.62V29z"/>
			<path class="st2" d="M86.55,36.31l-2.57-3.49h-0.4v3.49h-0.66V29h1.34c1.58,0,2.37,0.65,2.37,1.99c0,1.15-0.73,1.83-1.9,1.83
				l2.63,3.49H86.55z M83.59,32.28h0.66c1.13,0,1.67-0.27,1.67-1.31c0-1.05-0.5-1.39-1.67-1.39h-0.66V32.28z"/>
			<path class="st2" d="M91.28,34.78c0.2,0.73,0.78,1.13,1.49,1.13c0.92,0,1.47-0.56,1.47-1.54c0-0.9-0.53-1.24-1.39-1.69
				c-1.16-0.6-1.83-1.07-1.83-2.1c0-1.03,0.77-1.76,1.89-1.76c0.74,0,1.28,0.32,1.62,0.93l-0.51,0.31c-0.2-0.42-0.61-0.64-1.15-0.64
				c-0.73,0-1.18,0.46-1.18,1.18c0,0.89,0.66,1.09,1.62,1.62c1.07,0.58,1.56,1.05,1.56,2.16c0,1.31-0.82,2.14-2.14,2.14
				c-0.96,0-1.65-0.48-2.03-1.42L91.28,34.78z"/>
			<path class="st2" d="M96.98,29v4.77c0,1.43,0.64,2.14,2,2.14c1.35,0,1.99-0.71,1.99-2.14V29h0.66v4.56
				c0,1.97-0.87,2.94-2.66,2.94s-2.66-0.97-2.66-2.94V29H96.98z"/>
			<path class="st2" d="M107.07,36.31l-2.57-3.49h-0.4v3.49h-0.66V29h1.34c1.58,0,2.37,0.65,2.37,1.99c0,1.15-0.73,1.83-1.9,1.83
				l2.63,3.49H107.07z M104.1,32.28h0.66c1.13,0,1.67-0.27,1.67-1.31c0-1.05-0.5-1.39-1.67-1.39h-0.66V32.28z"/>
			<path class="st2" d="M108.84,29h3.62v0.62h-2.95v2.29h2.84v0.62h-2.84v3.77h-0.66V29z"/>
			<path class="st2" d="M115.41,28.72l3.08,7.6h-0.73l-0.93-2.47h-2.99l-0.97,2.47h-0.67L115.41,28.72z M116.62,33.26l-1.25-3.18
				l-1.3,3.18H116.62z"/>
			<path class="st2" d="M122.67,29.42c-1.91,0-3.19,1.35-3.19,3.24c0,1.95,1.34,3.23,3.1,3.23c0.84,0,1.66-0.29,2.36-0.85
				l-0.01,0.78c-0.71,0.45-1.56,0.69-2.32,0.69c-2.2,0-3.84-1.54-3.84-3.84c0-2.25,1.68-3.82,3.84-3.82c0.93,0,1.73,0.26,2.38,0.77
				l-0.02,0.74C124.25,29.73,123.53,29.42,122.67,29.42z"/>
			<path class="st2" d="M126.42,29h0.66v7.31h-0.66V29z"/>
			<path class="st2" d="M128.91,28.69l5.17,6.11V29h0.62v7.52l-5.17-6.12v5.91h-0.62V28.69z"/>
			<path class="st2" d="M139.96,29.44c-1.83,0-3.07,1.37-3.07,3.3c0,1.78,1.29,3.15,3.07,3.15c1.63,0,2.77-1.07,2.79-2.62h-2.52
				V32.7h3.25c0,0.03,0,0.07,0,0.1c0,2.3-1.36,3.7-3.58,3.7c-2.22,0-3.72-1.55-3.72-3.83c0-2.21,1.52-3.83,3.69-3.83
				c1.45,0,2.55,0.52,3.13,1.58l-0.48,0.42C141.92,29.92,141.04,29.44,139.96,29.44z"/>
		</g>
	</g>
	<g>
		<path class="st3" d="M56.64,40.72h1.19l0.69,3.25l0.7-3.25h1.23l-1.31,4.51h-1.21l-0.71-3.28l-0.71,3.28h-1.22l-1.26-4.51h1.26
			l0.7,3.23L56.64,40.72z"/>
		<path class="st3" d="M63.23,40.72h1.19l0.69,3.25l0.7-3.25h1.23l-1.31,4.51h-1.21l-0.71-3.28l-0.71,3.28h-1.22l-1.26-4.51h1.26
			l0.7,3.23L63.23,40.72z"/>
		<path class="st3" d="M69.81,40.72h1.19l0.69,3.25l0.7-3.25h1.23l-1.31,4.51h-1.21l-0.71-3.28l-0.71,3.28h-1.22l-1.26-4.51h1.26
			l0.7,3.23L69.81,40.72z"/>
		<path class="st3" d="M73.94,43.99h1.25v1.24h-1.25V43.99z"/>
		<path class="st3" d="M80.1,41.2c0.37,0.39,0.55,0.96,0.55,1.71c0,0.79-0.18,1.4-0.54,1.81c-0.36,0.42-0.82,0.62-1.39,0.62
			c-0.36,0-0.66-0.09-0.9-0.27c-0.13-0.1-0.26-0.24-0.38-0.43V47h-1.17v-6.28h1.13v0.67c0.13-0.2,0.26-0.35,0.41-0.46
			c0.26-0.2,0.58-0.3,0.94-0.3C79.29,40.62,79.73,40.81,80.1,41.2z M79.2,42.05c-0.16-0.27-0.42-0.4-0.78-0.4
			c-0.43,0-0.73,0.2-0.89,0.61c-0.08,0.21-0.12,0.49-0.12,0.82c0,0.52,0.14,0.89,0.42,1.1c0.17,0.12,0.36,0.19,0.59,0.19
			c0.33,0,0.58-0.13,0.76-0.38c0.17-0.25,0.26-0.59,0.26-1.01C79.44,42.62,79.36,42.31,79.2,42.05z"/>
		<path class="st3" d="M84.18,42.33c-0.02-0.17-0.08-0.32-0.17-0.45c-0.13-0.18-0.34-0.27-0.62-0.27c-0.4,0-0.67,0.2-0.82,0.59
			c-0.08,0.21-0.12,0.49-0.12,0.83c0,0.33,0.04,0.6,0.12,0.8c0.14,0.38,0.41,0.56,0.8,0.56c0.28,0,0.47-0.07,0.59-0.22
			c0.12-0.15,0.19-0.34,0.21-0.58h1.2c-0.03,0.36-0.16,0.7-0.39,1.02c-0.37,0.52-0.92,0.77-1.64,0.77c-0.73,0-1.26-0.21-1.6-0.65
			c-0.34-0.43-0.51-0.99-0.51-1.67c0-0.77,0.19-1.37,0.57-1.8c0.38-0.43,0.9-0.64,1.56-0.64c0.57,0,1.03,0.13,1.39,0.38
			c0.36,0.25,0.57,0.7,0.64,1.34H84.18z"/>
		<path class="st3" d="M87.11,43.78c0.02,0.21,0.08,0.36,0.16,0.45c0.15,0.16,0.42,0.24,0.81,0.24c0.23,0,0.42-0.03,0.55-0.1
			c0.14-0.07,0.21-0.17,0.21-0.31c0-0.13-0.06-0.23-0.17-0.3c-0.11-0.07-0.52-0.19-1.23-0.36c-0.51-0.13-0.87-0.29-1.08-0.48
			c-0.21-0.19-0.31-0.46-0.31-0.81c0-0.42,0.16-0.77,0.49-1.07s0.79-0.45,1.38-0.45c0.56,0,1.02,0.11,1.38,0.34s0.56,0.61,0.61,1.16
			h-1.18c-0.02-0.15-0.06-0.27-0.13-0.36c-0.13-0.16-0.35-0.24-0.66-0.24c-0.26,0-0.44,0.04-0.55,0.12
			c-0.11,0.08-0.16,0.17-0.16,0.28c0,0.14,0.06,0.23,0.17,0.29c0.12,0.06,0.53,0.17,1.23,0.33c0.47,0.11,0.82,0.28,1.06,0.5
			c0.23,0.23,0.35,0.51,0.35,0.85c0,0.45-0.17,0.81-0.5,1.09c-0.33,0.28-0.85,0.42-1.54,0.42c-0.71,0-1.23-0.15-1.57-0.45
			c-0.34-0.3-0.51-0.68-0.51-1.14H87.11z"/>
		<path class="st3" d="M92.08,40.72v2.72c0,0.26,0.03,0.45,0.09,0.58c0.11,0.23,0.32,0.34,0.63,0.34c0.4,0,0.67-0.16,0.82-0.49
			c0.08-0.18,0.12-0.41,0.12-0.7v-2.45h1.19v4.51h-1.14v-0.64c-0.01,0.01-0.04,0.06-0.08,0.12c-0.04,0.07-0.1,0.13-0.16,0.18
			c-0.18,0.17-0.36,0.28-0.53,0.34c-0.17,0.06-0.37,0.09-0.6,0.09c-0.67,0-1.11-0.24-1.34-0.72c-0.13-0.26-0.19-0.65-0.19-1.17
			v-2.72H92.08z"/>
		<path class="st3" d="M98.58,40.61c0.02,0,0.05,0,0.1,0.01v1.21c-0.07-0.01-0.14-0.01-0.2-0.02c-0.06,0-0.1,0-0.14,0
			c-0.47,0-0.79,0.16-0.95,0.46c-0.09,0.17-0.14,0.44-0.14,0.8v2.15h-1.19v-4.51h1.12v0.79c0.18-0.3,0.34-0.5,0.48-0.62
			c0.22-0.18,0.51-0.28,0.86-0.28C98.54,40.61,98.56,40.61,98.58,40.61z"/>
		<path class="st3" d="M101.23,39.07c0.06,0,0.14,0.01,0.25,0.02v0.96c-0.07-0.01-0.18-0.01-0.33-0.02c-0.16,0-0.26,0.03-0.32,0.1
			c-0.06,0.07-0.09,0.15-0.09,0.24s0,0.21,0,0.38h0.77v0.83h-0.77v3.63h-1.17v-3.63H98.9v-0.83h0.64v-0.29c0-0.48,0.08-0.81,0.24-1
			c0.17-0.27,0.58-0.41,1.24-0.41C101.1,39.07,101.17,39.07,101.23,39.07z"/>
		<path class="st3" d="M103.97,42.48c0.22-0.03,0.38-0.06,0.47-0.1c0.17-0.07,0.25-0.18,0.25-0.33c0-0.18-0.06-0.31-0.19-0.38
			s-0.32-0.11-0.57-0.11c-0.28,0-0.48,0.07-0.6,0.21c-0.08,0.1-0.14,0.24-0.17,0.41h-1.14c0.02-0.39,0.14-0.72,0.33-0.97
			c0.31-0.4,0.85-0.6,1.61-0.6c0.5,0,0.94,0.1,1.32,0.29c0.38,0.2,0.58,0.56,0.58,1.11v2.07c0,0.14,0,0.32,0.01,0.52
			c0.01,0.15,0.03,0.26,0.07,0.31c0.04,0.05,0.1,0.1,0.17,0.14v0.17h-1.28c-0.04-0.09-0.06-0.18-0.07-0.26
			c-0.01-0.08-0.02-0.17-0.03-0.27c-0.16,0.18-0.35,0.33-0.57,0.45c-0.25,0.15-0.54,0.22-0.86,0.22c-0.41,0-0.75-0.12-1.02-0.35
			c-0.27-0.23-0.4-0.56-0.4-0.99c0-0.55,0.22-0.95,0.65-1.2c0.24-0.14,0.58-0.23,1.04-0.29L103.97,42.48z M104.69,43.03
			c-0.08,0.05-0.15,0.08-0.23,0.11c-0.08,0.03-0.18,0.06-0.32,0.08l-0.27,0.05c-0.25,0.04-0.43,0.1-0.54,0.16
			c-0.19,0.11-0.28,0.27-0.28,0.5c0,0.2,0.06,0.35,0.17,0.44s0.25,0.13,0.41,0.13c0.26,0,0.49-0.07,0.71-0.22
			c0.22-0.15,0.33-0.42,0.34-0.81V43.03z"/>
		<path class="st3" d="M109.59,42.33c-0.02-0.17-0.08-0.32-0.17-0.45c-0.13-0.18-0.34-0.27-0.62-0.27c-0.4,0-0.67,0.2-0.82,0.59
			c-0.08,0.21-0.12,0.49-0.12,0.83c0,0.33,0.04,0.6,0.12,0.8c0.14,0.38,0.41,0.56,0.8,0.56c0.28,0,0.47-0.07,0.59-0.22
			c0.12-0.15,0.19-0.34,0.21-0.58h1.2c-0.03,0.36-0.16,0.7-0.39,1.02c-0.37,0.52-0.92,0.77-1.64,0.77c-0.73,0-1.26-0.21-1.6-0.65
			c-0.34-0.43-0.51-0.99-0.51-1.67c0-0.77,0.19-1.37,0.57-1.8c0.38-0.43,0.9-0.64,1.56-0.64c0.57,0,1.03,0.13,1.39,0.38
			c0.36,0.25,0.57,0.7,0.64,1.34H109.59z"/>
		<path class="st3" d="M112.81,40.18h-1.19v-1.09h1.19V40.18z M111.62,40.72h1.19v4.51h-1.19V40.72z"/>
		<path class="st3" d="M117.59,40.98c0.29,0.24,0.44,0.65,0.44,1.21v3.03h-1.21v-2.74c0-0.24-0.03-0.42-0.09-0.55
			c-0.12-0.23-0.33-0.35-0.66-0.35c-0.4,0-0.67,0.17-0.82,0.51c-0.08,0.18-0.11,0.41-0.11,0.69v2.44h-1.18v-4.5h1.14v0.66
			c0.15-0.23,0.29-0.4,0.43-0.5c0.24-0.18,0.55-0.27,0.92-0.27C116.91,40.61,117.29,40.73,117.59,40.98z"/>
		<path class="st3" d="M121.35,40.71c0.29,0.12,0.52,0.34,0.69,0.65v-0.65h1.15v4.27c0,0.58-0.1,1.02-0.29,1.31
			c-0.34,0.51-0.98,0.76-1.93,0.76c-0.58,0-1.05-0.11-1.41-0.34c-0.36-0.23-0.56-0.56-0.6-1.01h1.28c0.03,0.14,0.09,0.24,0.16,0.3
			c0.13,0.11,0.34,0.16,0.64,0.16c0.42,0,0.71-0.14,0.85-0.43c0.09-0.18,0.14-0.49,0.14-0.92v-0.29c-0.11,0.19-0.23,0.34-0.36,0.43
			c-0.23,0.18-0.54,0.27-0.91,0.27c-0.58,0-1.04-0.2-1.39-0.61s-0.52-0.96-0.52-1.65c0-0.67,0.17-1.23,0.5-1.69s0.8-0.68,1.42-0.68
			C120.99,40.61,121.19,40.64,121.35,40.71z M121.76,43.94c0.19-0.21,0.28-0.54,0.28-0.99c0-0.43-0.09-0.75-0.27-0.98
			s-0.42-0.33-0.72-0.33c-0.41,0-0.7,0.19-0.85,0.58c-0.08,0.21-0.12,0.46-0.12,0.76c0,0.26,0.04,0.5,0.13,0.7
			c0.16,0.38,0.44,0.57,0.86,0.57C121.33,44.26,121.57,44.15,121.76,43.94z"/>
		<path class="st3" d="M124.28,43.99h1.25v1.24h-1.25V43.99z"/>
		<path class="st3" d="M129.34,42.33c-0.02-0.17-0.08-0.32-0.17-0.45c-0.13-0.18-0.34-0.27-0.62-0.27c-0.4,0-0.67,0.2-0.82,0.59
			c-0.08,0.21-0.12,0.49-0.12,0.83c0,0.33,0.04,0.6,0.12,0.8c0.14,0.38,0.41,0.56,0.8,0.56c0.28,0,0.47-0.07,0.59-0.22
			c0.12-0.15,0.19-0.34,0.21-0.58h1.2c-0.03,0.36-0.16,0.7-0.39,1.02c-0.37,0.52-0.92,0.77-1.64,0.77c-0.73,0-1.26-0.21-1.6-0.65
			c-0.34-0.43-0.51-0.99-0.51-1.67c0-0.77,0.19-1.37,0.57-1.8c0.38-0.43,0.9-0.64,1.56-0.64c0.57,0,1.03,0.13,1.39,0.38
			c0.36,0.25,0.57,0.7,0.64,1.34H129.34z"/>
		<path class="st3" d="M135.11,44.67c-0.38,0.47-0.96,0.7-1.73,0.7s-1.35-0.24-1.73-0.7c-0.38-0.47-0.57-1.04-0.57-1.7
			c0-0.65,0.19-1.21,0.57-1.69s0.96-0.71,1.73-0.71s1.35,0.24,1.73,0.71s0.57,1.04,0.57,1.69C135.68,43.64,135.49,44.2,135.11,44.67
			z M134.17,44.02c0.18-0.25,0.28-0.59,0.28-1.04c0-0.45-0.09-0.8-0.28-1.04c-0.18-0.24-0.45-0.37-0.79-0.37
			c-0.34,0-0.61,0.12-0.8,0.37c-0.19,0.24-0.28,0.59-0.28,1.04c0,0.45,0.09,0.8,0.28,1.04s0.45,0.37,0.8,0.37
			C133.72,44.39,133.99,44.27,134.17,44.02z"/>
		<path class="st3" d="M142.15,40.73c0.19,0.08,0.37,0.21,0.52,0.41c0.13,0.16,0.21,0.35,0.26,0.58c0.03,0.15,0.04,0.37,0.04,0.67
			l-0.01,2.84h-1.21v-2.87c0-0.17-0.03-0.31-0.08-0.42c-0.1-0.21-0.3-0.31-0.58-0.31c-0.33,0-0.55,0.13-0.67,0.41
			c-0.06,0.14-0.1,0.32-0.1,0.52v2.68h-1.19v-2.68c0-0.27-0.03-0.46-0.08-0.58c-0.1-0.22-0.29-0.33-0.58-0.33
			c-0.34,0-0.56,0.11-0.68,0.33c-0.06,0.12-0.1,0.31-0.1,0.55v2.71h-1.19v-4.5h1.15v0.66c0.15-0.23,0.28-0.4,0.41-0.5
			c0.23-0.18,0.52-0.26,0.89-0.26c0.34,0,0.62,0.08,0.83,0.23c0.17,0.14,0.3,0.32,0.39,0.54c0.15-0.26,0.35-0.46,0.57-0.58
			c0.24-0.12,0.51-0.19,0.81-0.19C141.76,40.62,141.96,40.66,142.15,40.73z"/>
	</g>
</g>
</svg>
